<svg xmlns="http://www.w3.org/2000/svg" width="500" height="200" version="1.0" viewBox="0 0 375 150"><path fill="#DF4750" d="M12.916 84.694 4.26 75.287l8.656-9.406h9.14l-8.687 9.406 8.687 9.407ZM352.872 65.881h9.157l8.64 9.406-8.64 9.407h-9.157l8.688-9.407Zm0 0"/><path fill="#222" d="M52.639 64.648V82.6c0 4.082-1.11 7.144-3.329 9.187-2.218 2.04-5.406 3.063-9.562 3.063-2.168 0-4.2-.246-6.094-.735-1.887-.492-3.492-1.21-4.812-2.156l2.797-5.39c.882.726 2.007 1.3 3.375 1.718 1.363.426 2.71.64 4.046.64 2.02 0 3.504-.448 4.454-1.343.945-.887 1.421-2.207 1.421-3.969v-.734c-1.492 1.73-3.668 2.594-6.53 2.594-1.95 0-3.747-.438-5.391-1.313a10.039 10.039 0 0 1-3.938-3.719c-.969-1.613-1.453-3.472-1.453-5.578 0-2.082.484-3.925 1.453-5.53a10.023 10.023 0 0 1 3.938-3.735c1.644-.875 3.44-1.313 5.39-1.313 3.133 0 5.43 1.012 6.89 3.031v-2.671ZM40.232 79.366c1.375 0 2.516-.414 3.422-1.25.906-.843 1.36-1.925 1.36-3.25 0-1.32-.45-2.394-1.344-3.218-.887-.832-2.031-1.25-3.438-1.25-1.406 0-2.562.418-3.468 1.25-.907.824-1.36 1.898-1.36 3.218 0 1.325.457 2.407 1.375 3.25.914.836 2.067 1.25 3.453 1.25ZM66.935 64.288c3.656 0 6.441.836 8.359 2.5 1.914 1.656 2.875 4.2 2.875 7.625v12.203h-7.172v-2.843c-1.117 2.136-3.277 3.203-6.484 3.203-1.711 0-3.184-.297-4.422-.89-1.242-.595-2.18-1.395-2.813-2.407-.636-1.008-.953-2.164-.953-3.469 0-2.082.797-3.695 2.39-4.844 1.595-1.144 4.052-1.718 7.376-1.718h4.375c-.137-2.32-1.688-3.485-4.656-3.485-1.055 0-2.122.172-3.204.516-1.085.336-2.007.797-2.765 1.39l-2.594-5.234c1.219-.812 2.695-1.437 4.438-1.875 1.75-.445 3.5-.672 5.25-.672Zm-.282 17.828c.895 0 1.68-.21 2.36-.64.675-.438 1.16-1.07 1.453-1.907v-1.906h-3.328c-2.242 0-3.36.742-3.36 2.219 0 .68.254 1.219.766 1.625.52.406 1.223.61 2.11.61ZM96.86 64.288c2 0 3.816.461 5.453 1.375 1.632.918 2.93 2.235 3.89 3.953.957 1.72 1.438 3.711 1.438 5.97 0 2.273-.48 4.273-1.438 6-.96 1.73-2.258 3.062-3.89 4-1.637.929-3.454 1.39-5.454 1.39-2.898 0-5.058-.848-6.484-2.547v2.187h-7.344V56.538h7.703v10.016c1.489-1.508 3.532-2.266 6.125-2.266Zm-1.626 16.578c1.352 0 2.461-.46 3.329-1.39.863-.938 1.296-2.235 1.296-3.89 0-1.614-.433-2.88-1.296-3.798-.868-.926-1.977-1.39-3.329-1.39-1.355 0-2.464.464-3.328 1.39-.867.918-1.297 2.184-1.297 3.797 0 1.656.43 2.953 1.297 3.89.864.93 1.973 1.391 3.328 1.391ZM118.547 67.288c.781-1 1.797-1.75 3.047-2.25 1.258-.5 2.703-.75 4.328-.75v6.922c-.711-.07-1.293-.11-1.75-.11-1.648 0-2.938.45-3.875 1.344-.93.887-1.39 2.247-1.39 4.079v10.093h-7.704V64.648h7.344ZM129.16 64.648h7.703v21.968h-7.703Zm3.86-2.438c-1.407 0-2.543-.39-3.407-1.172-.867-.781-1.296-1.754-1.296-2.922 0-1.156.43-2.125 1.296-2.906.864-.789 2-1.187 3.407-1.187 1.406 0 2.539.375 3.406 1.125.863.742 1.297 1.695 1.297 2.859 0 1.21-.434 2.215-1.297 3.016-.867.793-2 1.187-3.406 1.187ZM164.3 75.679c0 .055-.038.687-.108 1.906h-15.985c.332 1.125.961 1.996 1.89 2.61.938.605 2.102.906 3.5.906 1.063 0 1.977-.145 2.75-.438.77-.3 1.548-.789 2.329-1.469l4.047 4.22c-2.137 2.374-5.258 3.562-9.36 3.562-2.574 0-4.836-.485-6.78-1.453-1.938-.97-3.446-2.317-4.516-4.047-1.063-1.727-1.594-3.692-1.594-5.89 0-2.157.52-4.095 1.562-5.813 1.04-1.72 2.477-3.063 4.313-4.032 1.844-.968 3.91-1.453 6.203-1.453 2.187 0 4.172.453 5.953 1.36a10.239 10.239 0 0 1 4.234 3.937c1.04 1.711 1.563 3.742 1.563 6.094Zm-11.702-5.922c-1.188 0-2.184.34-2.985 1.016-.804.68-1.308 1.593-1.515 2.75h9c-.219-1.157-.73-2.07-1.531-2.75-.793-.676-1.782-1.016-2.97-1.016ZM167.871 56.538h7.703v30.078h-7.703ZM193.244 64.929c2.727 0 4.895.793 6.5 2.375 1.613 1.586 2.422 3.902 2.422 6.953v12.36h-3.89V74.693c0-2.07-.5-3.632-1.5-4.687-1-1.063-2.434-1.594-4.298-1.594-2.105 0-3.765.617-4.984 1.844-1.219 1.23-1.828 2.996-1.828 5.297v11.062h-3.89V56.538h3.89v11.64c.812-1.03 1.875-1.827 3.187-2.39 1.313-.57 2.774-.86 4.391-.86ZM228.802 75.991c0 .305-.032.7-.094 1.188h-17.422c.238 1.887 1.066 3.406 2.484 4.562 1.426 1.149 3.192 1.72 5.297 1.72 2.563 0 4.63-.864 6.203-2.595l2.14 2.5c-.968 1.137-2.179 2.008-3.624 2.61-1.45.593-3.063.89-4.844.89-2.273 0-4.289-.46-6.047-1.39-1.75-.938-3.105-2.242-4.062-3.922-.961-1.676-1.438-3.567-1.438-5.672 0-2.082.461-3.96 1.39-5.64.938-1.676 2.224-2.977 3.86-3.907 1.633-.937 3.477-1.406 5.532-1.406 2.05 0 3.878.469 5.484 1.406 1.613.93 2.875 2.23 3.781 3.906.906 1.68 1.36 3.594 1.36 5.75Zm-10.625-7.78c-1.868 0-3.43.57-4.688 1.702-1.25 1.137-1.984 2.625-2.203 4.469h13.781c-.219-1.813-.96-3.29-2.219-4.438-1.25-1.156-2.808-1.734-4.671-1.734ZM237.922 68.741c.675-1.238 1.675-2.18 3-2.828 1.32-.656 2.925-.984 4.812-.984v3.765c-.21-.019-.508-.03-.89-.03-2.106 0-3.762.632-4.97 1.89-1.199 1.25-1.796 3.039-1.796 5.36v10.702h-3.89V65.132h3.734ZM271.072 56.538v30.078h-3.734V83.21a8.516 8.516 0 0 1-3.281 2.719c-1.325.625-2.782.937-4.375.937-2.086 0-3.95-.457-5.594-1.375a10.013 10.013 0 0 1-3.875-3.875c-.93-1.664-1.39-3.578-1.39-5.734 0-2.164.46-4.07 1.39-5.719a9.96 9.96 0 0 1 3.875-3.844c1.644-.925 3.508-1.39 5.594-1.39 1.539 0 2.957.293 4.25.875a8.35 8.35 0 0 1 3.25 2.578V56.538ZM260.01 83.46c1.351 0 2.582-.316 3.687-.953a6.724 6.724 0 0 0 2.594-2.672c.625-1.156.937-2.473.937-3.953 0-1.488-.312-2.805-.937-3.953-.625-1.156-1.492-2.04-2.594-2.656-1.105-.625-2.336-.938-3.687-.938-1.375 0-2.617.313-3.719.938-1.094.617-1.96 1.5-2.594 2.656-.625 1.148-.937 2.465-.937 3.953 0 1.48.312 2.797.937 3.953.633 1.149 1.5 2.04 2.594 2.672 1.102.637 2.344.953 3.719.953ZM278.452 65.132h3.89v21.484h-3.89Zm1.953-4.125c-.762 0-1.39-.242-1.89-.734a2.396 2.396 0 0 1-.75-1.782c0-.707.25-1.312.75-1.812s1.128-.75 1.89-.75c.75 0 1.375.242 1.875.719.5.468.75 1.058.75 1.765 0 .73-.25 1.344-.75 1.844s-1.125.75-1.875.75ZM301.23 64.929c2.726 0 4.894.793 6.5 2.375 1.613 1.586 2.422 3.902 2.422 6.953v12.36h-3.891V74.693c0-2.07-.5-3.632-1.5-4.687-1-1.063-2.434-1.594-4.297-1.594-2.105 0-3.766.617-4.984 1.844-1.22 1.23-1.828 2.996-1.828 5.297v11.062h-3.891V65.132h3.734v3.25c.782-1.113 1.836-1.969 3.172-2.563 1.344-.593 2.863-.89 4.563-.89ZM325.193 64.929c2.97 0 5.243.73 6.829 2.187 1.582 1.461 2.375 3.637 2.375 6.532v12.968h-3.704v-2.843c-.648 1-1.574 1.765-2.78 2.296-1.2.532-2.622.797-4.266.797-2.407 0-4.336-.582-5.782-1.75-1.437-1.164-2.156-2.691-2.156-4.578 0-1.894.688-3.414 2.063-4.562 1.375-1.145 3.562-1.719 6.562-1.719h6.172v-.766c0-1.675-.492-2.957-1.469-3.843-.969-.895-2.402-1.344-4.297-1.344-1.273 0-2.515.21-3.734.625-1.211.418-2.234.976-3.078 1.672l-1.61-2.907c1.102-.894 2.426-1.578 3.97-2.046a16.504 16.504 0 0 1 4.905-.72Zm-.89 18.937c1.476 0 2.758-.328 3.844-.984 1.082-.664 1.867-1.61 2.359-2.828v-3h-6c-3.305 0-4.953 1.11-4.953 3.328 0 1.074.414 1.922 1.25 2.547.844.625 2.008.937 3.5.937Zm0 0"/><path fill="#DF4750" d="m349.452 64.794-4.766 20.75h-3.828l4.781-20.75Zm0 0"/></svg>
