<svg xmlns="http://www.w3.org/2000/svg" width="800" height="800" viewBox="0 0 512 512"><path fill="#F89848" fill-rule="evenodd" d="M277.333 405.333v85.334h-42.666v-85.334h42.666Zm99.347-58.823 60.34 60.34-30.17 30.17-60.34-60.34 30.17-30.17Zm-241.36 0 30.17 30.17-60.34 60.34-30.17-30.17 60.34-60.34ZM256 139.353c64.422 0 116.647 52.225 116.647 116.647S320.422 372.647 256 372.647A116.427 116.427 0 0 1 139.353 256c0-64.422 52.225-116.647 116.647-116.647Zm234.667 95.314v42.666h-85.334v-42.666h85.334Zm-384 0v42.666H21.333v-42.666h85.334ZM105.15 74.98l60.34 60.34-30.17 30.17-60.34-60.34 30.17-30.17Zm301.698 0 30.17 30.17-60.34 60.34-30.17-30.17 60.34-60.34ZM277.333 21.333v85.334h-42.666V21.333h42.666Z"/></svg>
