<svg xmlns="http://www.w3.org/2000/svg" xml:space="preserve" width="800" height="800" viewBox="0 0 504 504"><path d="M367.6 462.4c-2.4 0-4-1.6-4-4v-16c0-2.4 1.6-4 4-4s4 1.6 4 4v16c0 2.4-1.6 4-4 4zm-15.2-4c-.8 0-1.6 0-2.4-.8l-13.6-8c-1.6-.8-2.4-3.2-1.6-5.6.8-1.6 3.2-2.4 5.6-1.6l13.6 8c1.6.8 2.4 3.2 1.6 5.6 0 1.6-1.6 2.4-3.2 2.4zm-27.2-16c-.8 0-1.6 0-2.4-.8l-13.6-8c-1.6-.8-2.4-3.2-1.6-5.6.8-1.6 3.2-2.4 5.6-1.6l13.6 8c1.6.8 2.4 3.2 1.6 5.6-.8 1.6-1.6 2.4-3.2 2.4zm42.4-12c-2.4 0-4-1.6-4-4v-16c0-2.4 1.6-4 4-4s4 1.6 4 4v16c0 2.4-1.6 4-4 4zm-69.6-4c-.8 0-1.6 0-2.4-.8l-13.6-8c-1.6-.8-2.4-3.2-1.6-5.6.8-1.6 3.2-2.4 5.6-1.6l13.6 8c1.6.8 2.4 3.2 1.6 5.6-.8 1.6-2.4 2.4-3.2 2.4zm-28-16c-.8 0-1.6 0-2.4-.8l-13.6-8c-1.6-.8-2.4-3.2-1.6-5.6.8-1.6 4-2.4 5.6-1.6l13.6 8c1.6.8 2.4 3.2 1.6 5.6-.8 1.6-1.6 2.4-3.2 2.4zm97.6-12c-2.4 0-4-1.6-4-4v-16c0-2.4 1.6-4 4-4s4 1.6 4 4v16c0 2.4-1.6 4-4 4zm-124.8-4.8c-.8 0-1.6 0-2.4-.8l-13.6-8c-1.6-.8-2.4-3.2-1.6-5.6.8-1.6 3.2-2.4 5.6-1.6l13.6 8c1.6.8 2.4 3.2 1.6 5.6-.8 1.6-2.4 2.4-3.2 2.4zm-28-16c-.8 0-1.6 0-2.4-.8l-13.6-8c-1.6-.8-2.4-3.2-1.6-5.6.8-1.6 3.2-2.4 5.6-1.6l13.6 8c1.6.8 2.4 3.2 1.6 5.6-.8 1.6-1.6 2.4-3.2 2.4zm152.8-11.2c-2.4 0-4-1.6-4-4v-16c0-2.4 1.6-4 4-4s4 1.6 4 4v16c0 2.4-1.6 4-4 4zm-180-4.8c-.8 0-1.6 0-2.4-.8l-13.6-8c-1.6-.8-2.4-3.2-1.6-5.6.8-1.6 3.2-2.4 5.6-1.6l13.6 8c1.6.8 2.4 3.2 1.6 5.6-.8 1.6-2.4 2.4-3.2 2.4zm-28-16.8c-.8 0-1.6 0-2.4-.8l-13.6-8c-1.6-.8-2.4-3.2-1.6-5.6.8-1.6 3.2-2.4 5.6-1.6l13.6 8c1.6.8 2.4 3.2 1.6 5.6-.8 2.4-1.6 2.4-3.2 2.4zm208-10.4c-2.4 0-4-1.6-4-4v-16c0-2.4 1.6-4 4-4s4 1.6 4 4v16c0 2.4-1.6 4-4 4zm-235.2-5.6c-.8 0-1.6 0-2.4-.8l-13.6-8c-1.6-.8-2.4-3.2-1.6-5.6.8-1.6 4-2.4 5.6-1.6l13.6 8c1.6.8 2.4 3.2 1.6 5.6-.8 1.6-2.4 2.4-3.2 2.4zm-28-16c-.8 0-1.6 0-2.4-.8l-13.6-8c-1.6-.8-2.4-3.2-1.6-5.6.8-1.6 3.2-2.4 5.6-1.6l13.6 8c1.6.8 2.4 3.2 1.6 5.6-.8 1.6-1.6 2.4-3.2 2.4zm263.2-10.4c-2.4 0-4-1.6-4-4v-16c0-2.4 1.6-4 4-4s4 1.6 4 4v16c0 2.4-1.6 4-4 4zm-290.4-5.6c-.8 0-1.6 0-2.4-.8l-13.6-8c-2.4-1.6-2.4-4-1.6-5.6.8-1.6 4-2.4 5.6-1.6l13.6 8c1.6.8 2.4 3.2 1.6 5.6-.8 1.6-2.4 2.4-3.2 2.4zm-28-16.8c-.8 0-1.6 0-2.4-.8l-13.6-8c-1.6-.8-2.4-3.2-1.6-5.6.8-1.6 3.2-2.4 5.6-1.6l13.6 8c1.6.8 2.4 3.2 1.6 5.6 0 2.4-1.6 2.4-3.2 2.4zm318.4-9.6c-2.4 0-4-1.6-4-4v-16c0-2.4 1.6-4 4-4s4 1.6 4 4v16c0 2.4-1.6 4-4 4zM22 264c-.8 0-1.6 0-2.4-.8l-13.6-8c-1.6-.8-2.4-3.2-1.6-5.6.8-1.6 3.2-2.4 5.6-1.6l13.6 8c1.6.8 2.4 3.2 1.6 5.6-.8 1.6-2.4 2.4-3.2 2.4zm-2.4-15.2c-1.6 0-2.4-.8-3.2-1.6-.8-1.6-.8-4 1.6-5.6l13.6-8c1.6-.8 4-.8 5.6 1.6.8 1.6.8 4-1.6 5.6l-13.6 8h-2.4zm348-10.4c-2.4 0-4-1.6-4-4v-16c0-2.4 1.6-4 4-4s4 1.6 4 4v16c0 2.4-1.6 4-4 4zm-320-5.6c-1.6 0-2.4-.8-3.2-1.6-.8-1.6-.8-4 1.6-5.6l13.6-8c1.6-.8 4-.8 5.6 1.6.8 1.6.8 4-1.6 5.6l-13.6 8h-2.4zm27.2-16c-1.6 0-2.4-.8-3.2-1.6-.8-1.6-.8-4 1.6-5.6l13.6-8c1.6-.8 4-.8 5.6 1.6.8 1.6.8 4-1.6 5.6l-13.6 8h-2.4zm292.8-10.4c-2.4 0-4-1.6-4-4v-16c0-2.4 1.6-4 4-4s4 1.6 4 4v16c0 2.4-1.6 4-4 4zM102 200.8c-1.6 0-2.4-.8-3.2-1.6-.8-1.6-.8-4 1.6-5.6l13.6-8c1.6-.8 4-.8 5.6 1.6.8 1.6.8 4-1.6 5.6l-13.6 8c-.8-.8-1.6 0-2.4 0zm28-16.8c-1.6 0-2.4-.8-3.2-1.6-.8-1.6-.8-4 1.6-5.6l13.6-8c1.6-.8 4-.8 5.6 1.6.8 1.6.8 4-1.6 5.6l-13.6 8H130zm237.6-9.6c-2.4 0-4-1.6-4-4v-16c0-2.4 1.6-4 4-4s4 1.6 4 4v16c0 2.4-1.6 4-4 4zM157.2 168c-1.6 0-2.4-.8-3.2-1.6-.8-1.6-.8-4 1.6-5.6l13.6-8c1.6-.8 4-.8 5.6 1.6.8 1.6.8 4-1.6 5.6l-13.6 8h-2.4zm28-16c-1.6 0-2.4-.8-3.2-1.6-.8-1.6-.8-4 1.6-5.6l13.6-8c1.6-.8 4-.8 5.6 1.6.8 1.6.8 4-1.6 5.6l-13.6 8h-2.4zm182.4-9.6c-2.4 0-4-1.6-4-4v-16c0-2.4 1.6-4 4-4s4 1.6 4 4v16c0 2.4-1.6 4-4 4zM212.4 136c-1.6 0-2.4-.8-3.2-1.6-.8-1.6-.8-4 1.6-5.6l13.6-8c1.6-.8 4-.8 5.6 1.6.8 1.6.8 4-1.6 5.6l-13.6 8c-.8-.8-1.6 0-2.4 0zm28-16.8c-1.6 0-2.4-.8-3.2-1.6-.8-1.6-.8-4 1.6-5.6l13.6-8c1.6-.8 4-.8 5.6 1.6.8 1.6.8 4-1.6 5.6l-13.6 8h-2.4zm127.2-8.8c-2.4 0-4-1.6-4-4v-16c0-2.4 1.6-4 4-4s4 1.6 4 4v16c0 2.4-1.6 4-4 4zm-100-7.2c-1.6 0-2.4-.8-3.2-1.6-.8-1.6-.8-4 1.6-5.6l13.6-8c1.6-.8 4-.8 5.6 1.6s.8 4-1.6 5.6l-13.6 8h-2.4zm28-16c-1.6 0-2.4-.8-3.2-1.6-.8-1.6-.8-4 1.6-5.6l13.6-8c1.6-.8 4-.8 5.6 1.6.8 1.6.8 4-1.6 5.6l-13.6 8c-.8-.8-1.6 0-2.4 0zm72-8.8c-2.4 0-4-1.6-4-4v-16c0-2.4 1.6-4 4-4s4 2.4 4 4v16c0 2.4-1.6 4-4 4zm-44.8-8c-1.6 0-2.4-.8-3.2-1.6-.8-1.6-.8-4 1.6-5.6l13.6-8c1.6-.8 4-.8 5.6 1.6.8 1.6.8 4-1.6 5.6l-13.6 8h-2.4zm28-16c-1.6 0-2.4-.8-3.2-1.6-.8-1.6-.8-4 1.6-5.6l13.6-8c1.6-.8 2.4-.8 4 0s2.4 2.4 2.4 3.2c0 1.6-.8 3.2-2.4 4L354 53.6c-1.6.8-2.4.8-3.2.8z" style="fill:#c3d7dd"/><path d="M138.8 465.6c-.8 0-1.6 0-1.6-.8-1.6-.8-2.4-2.4-2.4-3.2 0-1.6.8-3.2 2.4-4l12.8-7.2c1.6-.8 4-.8 5.6 1.6.8 1.6.8 4-1.6 5.6l-13.6 8h-1.6zm27.2-16c-1.6 0-2.4-.8-3.2-1.6-.8-1.6-.8-4 1.6-5.6l13.6-8c1.6-.8 4-.8 5.6 1.6.8 1.6.8 4-1.6 5.6l-13.6 8c-.8-.8-1.6 0-2.4 0zm-30.4 0c-2.4 0-4-1.6-4-4v-16c0-2.4 1.6-4 4-4s4 1.6 4 4v16c0 1.6-1.6 4-4 4zm58.4-16.8c-1.6 0-2.4-.8-3.2-1.6-.8-1.6-.8-4 1.6-5.6l13.6-8c1.6-.8 4-.8 5.6 1.6.8 1.6.8 4-1.6 5.6l-13.6 8H194zm-58.4-15.2c-2.4 0-4-1.6-4-4v-16c0-2.4 1.6-4 4-4s4 1.6 4 4v16c0 1.6-1.6 4-4 4zm85.6-.8c-1.6 0-2.4-.8-3.2-1.6-.8-1.6-.8-4 1.6-5.6l13.6-8c1.6-.8 4-.8 5.6 1.6.8 1.6.8 4-1.6 5.6l-13.6 8h-2.4zm28-16c-1.6 0-2.4-.8-3.2-1.6-.8-1.6-.8-4 1.6-5.6l13.6-8c1.6-.8 4-.8 5.6 1.6.8 1.6.8 4-1.6 5.6l-13.6 8h-2.4zm-113.6-15.2c-2.4 0-4-1.6-4-4v-16c0-2.4 1.6-4 4-4s4 1.6 4 4v16c0 1.6-1.6 4-4 4zm140.8-.8c-1.6 0-2.4-.8-3.2-1.6-.8-1.6-.8-4 1.6-5.6l13.6-8c1.6-.8 4-.8 5.6 1.6s.8 4-1.6 5.6l-13.6 8c-.8-.8-1.6 0-2.4 0zm28-16.8c-1.6 0-2.4-.8-3.2-1.6-.8-1.6-.8-4 1.6-5.6l13.6-8c1.6-.8 4-.8 5.6 1.6.8 1.6.8 4-1.6 5.6l-13.6 8h-2.4zm-168.8-14.4c-2.4 0-4-1.6-4-4v-16c0-2.4 1.6-4 4-4s4 1.6 4 4v16c0 1.6-1.6 4-4 4zm196-1.6c-1.6 0-2.4-.8-3.2-1.6-.8-1.6-.8-4 1.6-5.6l13.6-8c1.6-.8 4-.8 5.6 1.6.8 1.6.8 4-1.6 5.6l-13.6 8h-2.4zm28-16c-1.6 0-2.4-.8-3.2-1.6-.8-1.6-.8-4 1.6-5.6l13.6-8c1.6-.8 4-.8 5.6 1.6.8 1.6.8 4-1.6 5.6l-13.6 8h-2.4zm-224-14.4c-2.4 0-4-1.6-4-4v-16c0-2.4 1.6-4 4-4s4 1.6 4 4v16c0 1.6-1.6 4-4 4zm251.2-1.6c-1.6 0-2.4-.8-3.2-1.6-.8-1.6-.8-4 1.6-5.6l13.6-8c1.6-.8 4-.8 5.6 1.6.8 1.6.8 4-1.6 5.6l-13.6 8c-.8-.8-1.6 0-2.4 0zm28-16.8c-1.6 0-2.4-.8-3.2-1.6-.8-1.6-.8-4 1.6-5.6l13.6-8c1.6-.8 4-.8 5.6 1.6.8 1.6.8 4-1.6 5.6l-13.6 8h-2.4zm-279.2-13.6c-2.4 0-4-1.6-4-4v-16c0-2.4 1.6-4 4-4s4 1.6 4 4v16c0 1.6-1.6 4-4 4zm306.4-2.4c-1.6 0-2.4-.8-3.2-1.6-.8-1.6-.8-4 1.6-5.6l13.6-8c1.6-.8 4-.8 5.6 1.6s.8 4-1.6 5.6l-13.6 8H442zm28-16c-1.6 0-2.4-.8-3.2-1.6-.8-1.6-.8-4 1.6-5.6l13.6-8c1.6-.8 4-.8 5.6 1.6.8 1.6.8 4-1.6 5.6l-13.6 8c-1.6-.8-1.6 0-2.4 0zm-334.4-13.6c-2.4 0-4-1.6-4-4v-16c0-2.4 1.6-4 4-4s4 1.6 4 4v16c0 1.6-1.6 4-4 4zm360-1.6c-.8 0-1.6 0-2.4-.8l-13.6-8c-1.6-.8-2.4-3.2-1.6-5.6.8-1.6 3.2-2.4 5.6-1.6l13.6 8c1.6.8 2.4 3.2 1.6 5.6-.8 1.6-2.4 2.4-3.2 2.4zm-28-16c-.8 0-1.6 0-2.4-.8l-13.6-8c-1.6-.8-2.4-3.2-1.6-5.6.8-1.6 3.2-2.4 5.6-1.6l13.6 8c1.6.8 2.4 3.2 1.6 5.6-.8 1.6-1.6 2.4-3.2 2.4zm-332-14.4c-2.4 0-4-1.6-4-4v-16c0-2.4 1.6-4 4-4s4 1.6 4 4v16c0 1.6-1.6 4-4 4zm304.8-2.4c-.8 0-1.6 0-2.4-.8l-13.6-8c-1.6-.8-2.4-3.2-1.6-5.6.8-1.6 3.2-2.4 5.6-1.6l13.6 8c1.6.8 2.4 3.2 1.6 5.6s-2.4 2.4-3.2 2.4zm-28-16c-.8 0-1.6 0-2.4-.8l-13.6-8c-1.6-.8-2.4-3.2-1.6-5.6.8-1.6 3.2-2.4 5.6-1.6l13.6 8c1.6.8 2.4 3.2 1.6 5.6 0 1.6-1.6 2.4-3.2 2.4zm-276.8-13.6c-2.4 0-4-1.6-4-4v-16c0-2.4 1.6-4 4-4s4 1.6 4 4v16c0 1.6-1.6 4-4 4zm249.6-2.4c-.8 0-1.6 0-2.4-.8l-13.6-8c-1.6-.8-2.4-3.2-1.6-5.6.8-1.6 3.2-2.4 5.6-1.6l13.6 8c1.6.8 2.4 3.2 1.6 5.6-.8 1.6-2.4 2.4-3.2 2.4zm-28-16c-.8 0-1.6 0-2.4-.8l-13.6-8c-1.6-.8-2.4-3.2-1.6-5.6s3.2-2.4 5.6-1.6l13.6 8c1.6.8 2.4 3.2 1.6 5.6 0 1.6-1.6 2.4-3.2 2.4zm-221.6-13.6c-2.4 0-4-1.6-4-4v-16c0-2.4 1.6-4 4-4s4 1.6 4 4v16c0 1.6-1.6 4-4 4zm194.4-3.2c-.8 0-1.6 0-2.4-.8l-13.6-8c-1.6-.8-2.4-3.2-1.6-5.6.8-1.6 3.2-2.4 5.6-1.6l13.6 8c1.6.8 2.4 3.2 1.6 5.6-.8 1.6-2.4 2.4-3.2 2.4zm-28-16c-.8 0-1.6 0-2.4-.8l-13.6-8c-1.6-.8-2.4-3.2-1.6-5.6.8-1.6 4-2.4 5.6-1.6l13.6 8c1.6.8 2.4 3.2 1.6 5.6 0 1.6-1.6 2.4-3.2 2.4zm-166.4-12.8c-2.4 0-4-1.6-4-4v-16c0-2.4 1.6-4 4-4s4 1.6 4 4v16c0 1.6-1.6 4-4 4zm139.2-3.2c-.8 0-1.6 0-2.4-.8l-13.6-8c-1.6-.8-2.4-3.2-1.6-5.6.8-1.6 3.2-2.4 5.6-1.6l13.6 8c1.6.8 2.4 3.2 1.6 5.6-.8 1.6-2.4 2.4-3.2 2.4zm-28-16c-.8 0-1.6 0-2.4-.8l-13.6-8c-1.6-.8-2.4-3.2-1.6-5.6.8-1.6 3.2-2.4 5.6-1.6l13.6 8c1.6.8 2.4 3.2 1.6 5.6 0 1.6-1.6 2.4-3.2 2.4zM135.6 97.6c-2.4 0-4-1.6-4-4v-16c0-2.4 1.6-4 4-4s4 1.6 4 4v16c0 1.6-1.6 4-4 4zm84-4c-.8 0-1.6 0-2.4-.8l-13.6-8c-1.6-.8-2.4-3.2-1.6-5.6.8-1.6 3.2-2.4 5.6-1.6l13.6 8c1.6.8 2.4 3.2 1.6 5.6-.8 1.6-2.4 2.4-3.2 2.4zm-28-16c-.8 0-1.6 0-2.4-.8l-13.6-8c-1.6-.8-2.4-3.2-1.6-5.6.8-1.6 3.2-2.4 5.6-1.6l13.6 8c2.4 1.6 3.2 4 2.4 6.4-.8.8-2.4 1.6-4 1.6zm-56-12c-2.4 0-4-1.6-4-4v-16c0-2.4 1.6-4 4-4s4 1.6 4 4v16c0 1.6-1.6 4-4 4zm28.8-4c-.8 0-1.6 0-2.4-.8l-13.6-8c-1.6-.8-2.4-3.2-1.6-5.6.8-1.6 4-2.4 5.6-1.6l13.6 8c1.6.8 2.4 3.2 1.6 5.6-.8 1.6-2.4 2.4-3.2 2.4z" style="fill:#c3d7dd"/><path d="M373.2 468H130c-3.2 0-5.6 0-7.2-2.4L1.2 255.2c-1.6-2.4-1.6-4.8 0-8L122.8 38.4c1.6-2.4 4-2.4 7.2-2.4h244c3.2 0 5.6 0 7.2 2.4l121.6 210.4c1.6 2.4 1.6 4.8 0 8L380.4 465.6c-1.6 2.4-4 2.4-7.2 2.4zM134 452h234.4L486 252 369.2 52H134L17.2 252 134 452z" style="fill:#df4750"/><path d="M364.4 324H138.8c-3.2 0-5.6-.8-7.2-4-1.6-2.4-1.6-5.6 0-8l112.8-191.2c3.2-4.8 11.2-4.8 13.6 0L370.8 312c1.6 2.4 1.6 4.8 0 8-.8 3.2-4 4-6.4 4zm-211.2-16H350l-98.4-167.2L153.2 308z" style="fill:#df4750"/><path d="M251.6 316c-34.4 0-62.4-28-62.4-62.4s28-62.4 62.4-62.4 62.4 28 62.4 62.4-28 62.4-62.4 62.4zm0-108.8c-25.6 0-46.4 20.8-46.4 46.4S226 300 251.6 300s46.4-20.8 46.4-46.4-20.8-46.4-46.4-46.4z" style="fill:#df4750"/></svg>
