<svg xmlns="http://www.w3.org/2000/svg" xml:space="preserve" width="800" height="800" viewBox="0 0 512.002 512.002"><path d="M96.774 322.631h318.453l-47.67-82.566H144.444z" style="fill:#f4b2b0"/><path d="M415.227 337.117H96.774a14.484 14.484 0 0 1-12.545-21.729l47.67-82.566a14.484 14.484 0 0 1 12.545-7.243h223.113c5.176 0 9.958 2.761 12.545 7.243l47.67 82.566a14.488 14.488 0 0 1-12.545 21.729zm-293.364-28.971h268.272l-30.943-53.594H152.807l-30.944 53.594zM334.116 196.611c-5.006 0-9.875-2.599-12.558-7.246L256 75.815l-53.014 91.821h62.187c8 0 14.486 6.487 14.486 14.486s-6.485 14.486-14.486 14.486h-87.277a14.484 14.484 0 0 1-12.545-21.729l78.103-135.278a14.484 14.484 0 0 1 25.09 0l78.103 135.278c4.001 6.929 1.627 15.787-5.302 19.788a14.41 14.41 0 0 1-7.229 1.944zM497.515 479.644H14.486a14.484 14.484 0 0 1-12.545-21.729l48.833-84.584a14.484 14.484 0 0 1 12.545-7.243H284.97c8 0 14.486 6.487 14.486 14.486s-6.485 14.486-14.486 14.486H71.683l-32.108 55.612h432.85l-32.108-55.612h-68.429c-8.001 0-14.486-6.487-14.486-14.486s6.485-14.486 14.486-14.486h76.793c5.176 0 9.958 2.761 12.545 7.243l48.834 84.584a14.488 14.488 0 0 1-12.545 21.729z" style="fill:#b3404a"/></svg>